<svg width="232" height="65" viewBox="0 0 232 65" fill="none" xmlns="http://www.w3.org/2000/svg">
<path d="M2.34092 63.6226V56.253H28.6112C30.6342 56.253 32.3683 55.7906 33.8133 54.8658C35.2583 53.8832 36.3854 52.6405 37.1946 51.1376C38.0038 49.6348 38.4084 48.0453 38.4084 46.3691C38.4084 44.6351 38.0038 43.0456 37.1946 41.6006C36.4432 40.0978 35.345 38.9129 33.9 38.0459C32.5128 37.121 30.8076 36.6586 28.7846 36.6586H17.3401C13.9299 36.6586 10.9243 35.965 8.32327 34.5778C5.72224 33.1328 3.67033 31.1676 2.16752 28.6822C0.722506 26.139 0 23.2778 0 20.0988C0 16.862 0.693605 13.9431 2.08082 11.342C3.52583 8.74102 5.51994 6.68911 8.06316 5.18629C10.6642 3.68348 13.6409 2.93207 16.9933 2.93207H42.7434V10.3016H17.7736C15.8662 10.3016 14.19 10.764 12.745 11.6888C11.3 12.5558 10.2018 13.7119 9.45037 15.1569C8.69897 16.5441 8.32327 18.0469 8.32327 19.6653C8.32327 21.2259 8.67007 22.7287 9.36367 24.1737C10.1151 25.561 11.1844 26.6881 12.5716 27.5551C14.0166 28.4221 15.6639 28.8556 17.5135 28.8556H29.2181C32.8596 28.8556 35.9808 29.5781 38.5818 31.0231C41.1828 32.4681 43.1769 34.4333 44.5641 36.9187C45.9514 39.4042 46.645 42.2364 46.645 45.4154C46.645 48.9412 45.9225 52.0914 44.4774 54.8658C43.0902 57.5824 41.0961 59.721 38.4951 61.2816C35.8941 62.8422 32.9174 63.6226 29.5649 63.6226H2.34092Z" fill="#3B867B"/>
<path d="M77.5063 64.663C72.9979 64.663 69.0097 63.6515 65.5416 61.6284C62.0736 59.5476 59.3281 56.7732 57.3051 53.3052C55.2821 49.7793 54.2706 45.8489 54.2706 41.5139C54.2706 37.1788 55.2821 33.2773 57.3051 29.8093C59.3281 26.2835 62.0736 23.509 65.5416 21.486C69.0097 19.4052 72.9979 18.3648 77.5063 18.3648C82.0148 18.3648 86.003 19.4052 89.471 21.486C92.9969 23.509 95.7424 26.2546 97.7076 29.7226C99.7306 33.1906 100.742 37.121 100.742 41.5139C100.742 45.8489 99.7306 49.7793 97.7076 53.3052C95.7424 56.7732 92.9969 59.5476 89.471 61.6284C86.003 63.6515 82.0148 64.663 77.5063 64.663ZM77.5063 57.8136C80.5698 57.8136 83.2286 57.0911 85.4828 55.6461C87.737 54.2011 89.4999 52.2648 90.7715 49.8371C92.0432 47.3517 92.679 44.5773 92.679 41.5139C92.679 38.4505 92.0432 35.7049 90.7715 33.2773C89.4999 30.7919 87.737 28.8267 85.4828 27.3817C83.2286 25.9367 80.5698 25.2141 77.5063 25.2141C74.5007 25.2141 71.8419 25.9367 69.5299 27.3817C67.2757 28.8267 65.5127 30.7919 64.2411 33.2773C62.9695 35.7049 62.3337 38.4505 62.3337 41.5139C62.3337 44.5773 62.9695 47.3517 64.2411 49.8371C65.5127 52.2648 67.2757 54.2011 69.5299 55.6461C71.8419 57.0911 74.5007 57.8136 77.5063 57.8136Z" fill="#3B867B"/>
<path d="M132.386 63.6226C127.82 63.6226 123.745 62.6399 120.161 60.6747C116.577 58.7095 113.745 56.0796 111.664 52.785C109.584 49.4325 108.543 45.6755 108.543 41.5139C108.543 37.3522 109.584 33.6241 111.664 30.3295C113.745 26.9771 116.577 24.3182 120.161 22.353C123.745 20.3878 127.82 19.4052 132.386 19.4052H137.588V26.2546H132.126C129.178 26.2546 126.519 26.9482 124.149 28.3354C121.837 29.6648 119.988 31.4855 118.6 33.7975C117.271 36.1095 116.606 38.6817 116.606 41.5139C116.606 44.3461 117.271 46.9182 118.6 49.2302C119.988 51.5423 121.837 53.3919 124.149 54.7791C126.519 56.1085 129.178 56.7732 132.126 56.7732H137.588V63.6226H132.386Z" fill="#3B867B"/>
<path d="M146.701 63.6226V19.4052H154.764V63.6226H146.701ZM150.776 12.3824C149.331 12.3824 148.059 11.8622 146.961 10.8218C145.921 9.72363 145.4 8.45202 145.4 7.007C145.4 5.56199 145.921 4.31928 146.961 3.27887C148.059 2.18067 149.331 1.63156 150.776 1.63156C152.221 1.63156 153.464 2.18067 154.504 3.27887C155.602 4.31928 156.151 5.56199 156.151 7.007C156.151 8.45202 155.602 9.72363 154.504 10.8218C153.464 11.8622 152.221 12.3824 150.776 12.3824Z" fill="#3B867B"/>
<path d="M185.741 64.663C181.463 64.663 177.764 63.6515 174.643 61.6284C171.522 59.5476 169.123 56.7443 167.447 53.2185C165.771 49.6926 164.932 45.7911 164.932 41.5139C164.932 37.1788 165.857 33.2773 167.707 29.8093C169.557 26.2835 172.215 23.509 175.683 21.486C179.151 19.4052 183.313 18.3648 188.168 18.3648C192.85 18.3648 196.867 19.3763 200.22 21.3993C203.572 23.4223 206.144 26.1679 207.936 29.6359C209.786 33.1039 210.71 36.9765 210.71 41.2538V63.6226H202.647V54.6057H202.474C201.607 56.2819 200.422 57.9003 198.919 59.4609C197.474 60.9637 195.653 62.2064 193.457 63.189C191.261 64.1717 188.688 64.663 185.741 64.663ZM187.821 57.8136C190.711 57.8136 193.255 57.12 195.451 55.7328C197.705 54.2878 199.439 52.3226 200.653 49.8371C201.925 47.2939 202.561 44.4617 202.561 41.3405C202.561 38.2771 201.954 35.5315 200.74 33.1039C199.584 30.6763 197.908 28.7689 195.711 27.3817C193.515 25.9367 190.943 25.2141 187.995 25.2141C184.874 25.2141 182.186 25.9367 179.932 27.3817C177.735 28.8267 176.03 30.7919 174.816 33.2773C173.66 35.7049 173.082 38.4794 173.082 41.6006C173.082 44.6062 173.66 47.3517 174.816 49.8371C175.972 52.2648 177.649 54.2011 179.845 55.6461C182.041 57.0911 184.7 57.8136 187.821 57.8136Z" fill="#3B867B"/>
<path d="M223.411 63.6226V0.331055H231.387V63.6226H223.411Z" fill="#3B867B"/>
</svg>
