<svg width="137" height="80" viewBox="0 0 137 80" fill="none" xmlns="http://www.w3.org/2000/svg">
<path d="M41.1933 62.7713C38.0721 62.7713 35.2688 62.0488 32.7834 60.6038C30.2979 59.1588 28.3327 57.1935 26.8877 54.7081C25.5005 52.1649 24.8069 49.2171 24.8069 45.8647V15.6928C24.8069 14.1322 24.4312 12.7161 23.6798 11.4445C22.9284 10.1729 21.9169 9.16137 20.6453 8.40996C19.3737 7.65856 17.9864 7.28285 16.4836 7.28285C14.9808 7.28285 13.5936 7.65856 12.322 8.40996C11.1082 9.16137 10.1256 10.1729 9.37417 11.4445C8.68057 12.7161 8.33376 14.1322 8.33376 15.6928V61.7309H0.010498V16.8199C0.010498 13.6409 0.704104 10.7798 2.09132 8.23656C3.47853 5.69334 5.41484 3.69922 7.90026 2.25421C10.3857 0.751402 13.2468 0 16.4836 0C19.7783 0 22.6683 0.751402 25.1537 2.25421C27.6391 3.69922 29.5754 5.69334 30.9626 8.23656C32.3498 10.7798 33.0435 13.6409 33.0435 16.8199V46.9918C33.0435 48.6102 33.4192 50.0552 34.1706 51.3268C34.922 52.5406 35.9046 53.5232 37.1184 54.2746C38.39 55.026 39.7483 55.4017 41.1933 55.4017C42.6383 55.4017 43.9677 55.026 45.1816 54.2746C46.3954 53.5232 47.3491 52.5406 48.0427 51.3268C48.7941 50.0552 49.1698 48.6102 49.1698 46.9918V16.8199C49.1698 13.6409 49.8634 10.7798 51.2506 8.23656C52.6956 5.69334 54.6608 3.69922 57.1463 2.25421C59.6317 0.751402 62.5217 0 65.8163 0C69.0531 0 71.9143 0.751402 74.3997 2.25421C76.8851 3.69922 78.8214 5.69334 80.2086 8.23656C81.5958 10.7798 82.2894 13.6409 82.2894 16.8199V61.7309H73.9662V15.6928C73.9662 14.1322 73.5905 12.7161 72.8391 11.4445C72.1455 10.1729 71.1629 9.16137 69.8913 8.40996C68.6774 7.65856 67.3191 7.28285 65.8163 7.28285C64.2557 7.28285 62.8396 7.65856 61.568 8.40996C60.3542 9.16137 59.3716 10.1729 58.6202 11.4445C57.8688 12.7161 57.4931 14.1322 57.4931 15.6928V45.8647C57.4931 49.2171 56.7705 52.1649 55.3255 54.7081C53.9383 57.1935 52.002 59.1588 49.5166 60.6038C47.089 62.0488 44.3145 62.7713 41.1933 62.7713Z" fill="white"/>
<path d="M111.409 79.3311V62.4245C108.173 61.9621 105.283 60.8928 102.739 59.2166C100.254 57.4825 98.2887 55.2572 96.8436 52.5406C95.3986 49.7662 94.6761 46.6161 94.6761 43.0902V17.5135H102.739V43.0035C102.739 45.6624 103.317 47.9744 104.473 49.9396C105.629 51.847 107.161 53.3209 109.068 54.3613C111.034 55.4017 113.114 55.9219 115.311 55.9219C117.565 55.9219 119.646 55.4017 121.553 54.3613C123.519 53.3209 125.079 51.847 126.235 49.9396C127.449 47.9744 128.056 45.6624 128.056 43.0035V17.5135H136.032V43.0902C136.032 46.6161 135.31 49.7373 133.865 52.4539C132.478 55.1705 130.512 57.3958 127.969 59.1299C125.484 60.8061 122.623 61.9043 119.386 62.4245V79.3311H111.409Z" fill="white"/>
</svg>
