<svg width="71" height="70" viewBox="0 0 71 70" fill="none" xmlns="http://www.w3.org/2000/svg">
<path d="M50.4359 69.6633C46.5302 69.6633 43.0778 68.8649 40.0788 67.2682C37.1496 65.6077 34.848 63.3723 33.1742 60.5621C31.5003 57.7519 30.6634 54.5904 30.6634 51.0777V17.6429C30.6634 15.9184 30.2101 14.3537 29.3034 12.9486C28.3967 11.5435 27.1762 10.4258 25.6418 9.59551C24.1074 8.76523 22.4336 8.35009 20.6202 8.35009C18.8069 8.35009 17.133 8.76523 15.5987 9.59551C14.134 10.4258 12.9484 11.5435 12.0417 12.9486C11.2048 14.3537 10.7863 15.9184 10.7863 17.6429V68.5136H0.743164V18.8883C0.743164 15.3756 1.58009 12.2141 3.25395 9.40391C4.92781 6.59372 7.26424 4.39028 10.2632 2.79358C13.2622 1.13302 16.7146 0.302734 20.6202 0.302734C24.5957 0.302734 28.0829 1.13302 31.0819 2.79358C34.0809 4.39028 36.4173 6.59372 38.0911 9.40391C39.765 12.2141 40.6019 15.3756 40.6019 18.8883V52.3231C40.6019 54.0476 41.0553 55.6123 41.9619 57.0174C42.8686 58.4225 44.0543 59.5402 45.5189 60.3705C47.0533 61.2008 48.6922 61.6159 50.4359 61.6159C52.1795 61.6159 53.7836 61.2008 55.2482 60.3705C56.7128 59.5402 57.8636 58.4225 58.7005 57.0174C59.6072 55.6123 60.0605 54.0476 60.0605 52.3231V1.45235H70.1037V51.0777C70.1037 54.5904 69.2668 57.7519 67.5929 60.5621C65.9191 63.3723 63.6175 65.6077 60.6882 67.2682C57.759 68.8649 54.3415 69.6633 50.4359 69.6633Z" fill="white"/>
</svg>
