<svg width="298" height="65" viewBox="0 0 298 65" fill="none" xmlns="http://www.w3.org/2000/svg">
<path d="M25.5035 63.6633C20.6482 63.6633 16.3421 62.7674 12.5851 60.9756C8.82802 59.126 5.8802 56.5539 3.74158 53.2592C1.66077 49.9068 0.620361 46.0053 0.620361 41.5546C0.620361 37.1618 1.51627 33.2314 3.30808 29.7634C5.0999 26.2375 7.58531 23.4631 10.7643 21.4401C13.9434 19.4171 17.6426 18.4056 21.862 18.4056C26.4283 18.4056 30.2142 19.3882 33.2198 21.3534C36.2832 23.3186 38.5664 25.9774 40.0692 29.3299C41.572 32.6245 42.3234 36.3237 42.3234 40.4275C42.3234 41.0633 42.2945 41.7281 42.2367 42.4217C42.2367 43.1153 42.1789 43.7222 42.0633 44.2424H9.11703C9.40603 46.959 10.3019 49.271 11.8048 51.1784C13.3076 53.028 15.215 54.4442 17.527 55.4268C19.8968 56.3516 22.4978 56.814 25.3301 56.814H36.8612V63.6633H25.5035ZM9.03033 38.6068H34.2602C34.2602 37.5086 34.1446 36.3526 33.9134 35.1388C33.6822 33.8672 33.2776 32.6534 32.6996 31.4974C32.1216 30.2836 31.3413 29.2143 30.3587 28.2894C29.4339 27.3068 28.249 26.5265 26.804 25.9485C25.4168 25.3705 23.7694 25.0815 21.862 25.0815C19.839 25.0815 18.0472 25.4861 16.4866 26.2953C14.9838 27.0467 13.6833 28.0871 12.5851 29.4166C11.4868 30.6882 10.6487 32.1332 10.0707 33.7516C9.49273 35.37 9.14593 36.9884 9.03033 38.6068Z" fill="#3B867B"/>
<path d="M67.5804 63.6633C63.65 63.6633 60.5576 62.5362 58.3034 60.282C56.107 58.0278 55.0088 54.9644 55.0088 51.0917V8.34829H62.9852V50.5715C62.9852 52.4789 63.5054 54.0106 64.5459 55.1667C65.6441 56.2649 67.1469 56.814 69.0543 56.814H77.9845V63.6633H67.5804ZM47.3791 26.2953V19.446H78.1579V26.2953H47.3791Z" fill="#3B867B"/>
<path d="M102.627 64.7037C99.8527 64.7037 97.3384 64.1835 95.0841 63.1431C92.8877 62.0449 91.1248 60.3687 89.7954 58.1145C88.466 55.8025 87.8013 52.8546 87.8013 49.271V19.446H95.7777V50.6582C95.7777 52.2188 96.0956 53.5482 96.7315 54.6465C97.3673 55.7447 98.2054 56.5539 99.2458 57.0741C100.286 57.5943 101.384 57.8544 102.54 57.8544C103.696 57.8544 104.795 57.5943 105.835 57.0741C106.875 56.4961 107.714 55.6869 108.349 54.6465C109.043 53.5482 109.39 52.2188 109.39 50.6582V33.4915C109.39 30.0813 110.026 27.2779 111.297 25.0815C112.569 22.8273 114.303 21.1511 116.499 20.0529C118.696 18.9547 121.181 18.4056 123.955 18.4056C126.73 18.4056 129.215 18.9547 131.412 20.0529C133.608 21.1511 135.342 22.8273 136.614 25.0815C137.885 27.2779 138.521 30.0813 138.521 33.4915V50.6582C138.521 52.2188 138.839 53.5482 139.475 54.6465C140.111 55.6869 140.949 56.4961 141.989 57.0741C143.03 57.5943 144.157 57.8544 145.371 57.8544C146.584 57.8544 147.683 57.5943 148.665 57.0741C149.648 56.4961 150.457 55.6869 151.093 54.6465C151.729 53.5482 152.046 52.2188 152.046 50.6582V19.446H160.11V49.271C160.11 52.8546 159.445 55.8025 158.116 58.1145C156.786 60.3687 154.994 62.0449 152.74 63.1431C150.544 64.1835 148.087 64.7037 145.371 64.7037C142.712 64.7037 140.255 64.1835 138.001 63.1431C135.747 62.0449 133.926 60.3687 132.539 58.1145C131.209 55.8025 130.545 52.8546 130.545 49.271V32.2777C130.545 30.6593 130.227 29.3299 129.591 28.2894C128.955 27.249 128.146 26.4976 127.163 26.0352C126.181 25.515 125.111 25.2549 123.955 25.2549C122.799 25.2549 121.701 25.515 120.661 26.0352C119.678 26.4976 118.869 27.249 118.233 28.2894C117.655 29.3299 117.366 30.6593 117.366 32.2777V49.271C117.366 52.8546 116.673 55.8025 115.285 58.1145C113.956 60.3687 112.164 62.0449 109.91 63.1431C107.714 64.1835 105.286 64.7037 102.627 64.7037Z" fill="#3B867B"/>
<path d="M193.617 64.7037C189.108 64.7037 185.12 63.6922 181.652 61.6692C178.184 59.5884 175.438 56.814 173.415 53.3459C171.392 49.8201 170.381 45.8897 170.381 41.5546C170.381 37.2196 171.392 33.3181 173.415 29.8501C175.438 26.3242 178.184 23.5498 181.652 21.5268C185.12 19.446 189.108 18.4056 193.617 18.4056C198.125 18.4056 202.113 19.446 205.581 21.5268C209.107 23.5498 211.853 26.2953 213.818 29.7634C215.841 33.2314 216.853 37.1618 216.853 41.5546C216.853 45.8897 215.841 49.8201 213.818 53.3459C211.853 56.814 209.107 59.5884 205.581 61.6692C202.113 63.6922 198.125 64.7037 193.617 64.7037ZM193.617 57.8544C196.68 57.8544 199.339 57.1319 201.593 55.6869C203.847 54.2418 205.61 52.3055 206.882 49.8779C208.154 47.3925 208.789 44.6181 208.789 41.5546C208.789 38.4912 208.154 35.7457 206.882 33.3181C205.61 30.8327 203.847 28.8674 201.593 27.4224C199.339 25.9774 196.68 25.2549 193.617 25.2549C190.611 25.2549 187.952 25.9774 185.64 27.4224C183.386 28.8674 181.623 30.8327 180.352 33.3181C179.08 35.7457 178.444 38.4912 178.444 41.5546C178.444 44.6181 179.08 47.3925 180.352 49.8779C181.623 52.3055 183.386 54.2418 185.64 55.6869C187.952 57.1319 190.611 57.8544 193.617 57.8544Z" fill="#3B867B"/>
<path d="M226.821 63.6633V32.0176C226.821 28.0871 227.919 25.0237 230.116 22.8273C232.37 20.5731 235.462 19.446 239.393 19.446H248.496V26.2953H240.867C238.959 26.2953 237.456 26.8444 236.358 27.9426C235.318 29.0408 234.798 30.5726 234.798 32.5378V63.6633H226.821Z" fill="#3B867B"/>
<path d="M255.868 63.6633V0.371826H263.845V37.9999H275.983L287.601 19.446H296.444L283.873 39.2137C288.034 40.4275 291.271 42.7107 293.583 46.0631C295.953 49.3577 297.138 53.2014 297.138 57.5943V63.6633H289.075V57.5943C289.075 55.1667 288.526 52.9991 287.428 51.0917C286.387 49.1843 284.913 47.6815 283.006 46.5833C281.098 45.4273 278.902 44.8493 276.417 44.8493H263.845V63.6633H255.868Z" fill="#3B867B"/>
</svg>
