<svg width="66" height="34" viewBox="0 0 66 34" fill="none" xmlns="http://www.w3.org/2000/svg">
<path d="M33.9665 30C33.4065 30 32.9098 29.8967 32.4765 29.69C32.0432 29.4767 31.7032 29.18 31.4565 28.8C31.2165 28.4133 31.0965 27.9633 31.0965 27.45C31.0965 26.9433 31.1998 26.49 31.4065 26.09C31.6132 25.6833 31.8998 25.3633 32.2665 25.13C32.6332 24.8967 33.0598 24.78 33.5465 24.78C34.0732 24.78 34.5098 24.8933 34.8565 25.12C35.2098 25.3467 35.4732 25.6533 35.6465 26.04C35.8198 26.42 35.9065 26.8467 35.9065 27.32C35.9065 27.3933 35.9032 27.47 35.8965 27.55C35.8965 27.63 35.8898 27.7 35.8765 27.76H32.0765C32.1098 28.0733 32.2132 28.34 32.3865 28.56C32.5598 28.7733 32.7798 28.9367 33.0465 29.05C33.3198 29.1567 33.6198 29.21 33.9465 29.21H35.2765V30H33.9665ZM32.0665 27.11H34.9765C34.9765 26.9833 34.9632 26.85 34.9365 26.71C34.9098 26.5633 34.8632 26.4233 34.7965 26.29C34.7298 26.15 34.6398 26.0267 34.5265 25.92C34.4198 25.8067 34.2832 25.7167 34.1165 25.65C33.9565 25.5833 33.7665 25.55 33.5465 25.55C33.3132 25.55 33.1065 25.5967 32.9265 25.69C32.7532 25.7767 32.6032 25.8967 32.4765 26.05C32.3498 26.1967 32.2532 26.3633 32.1865 26.55C32.1198 26.7367 32.0798 26.9233 32.0665 27.11ZM38.8196 30C38.3663 30 38.0096 29.87 37.7496 29.61C37.4963 29.35 37.3696 28.9967 37.3696 28.55V23.62H38.2896V28.49C38.2896 28.71 38.3496 28.8867 38.4696 29.02C38.5963 29.1467 38.7696 29.21 38.9896 29.21H40.0196V30H38.8196ZM36.4896 25.69V24.9H40.0396V25.69H36.4896ZM42.8619 30.12C42.5419 30.12 42.2519 30.06 41.9919 29.94C41.7385 29.8133 41.5352 29.62 41.3819 29.36C41.2285 29.0933 41.1519 28.7533 41.1519 28.34V24.9H42.0719V28.5C42.0719 28.68 42.1085 28.8333 42.1819 28.96C42.2552 29.0867 42.3519 29.18 42.4719 29.24C42.5919 29.3 42.7185 29.33 42.8519 29.33C42.9852 29.33 43.1119 29.3 43.2319 29.24C43.3519 29.1733 43.4485 29.08 43.5219 28.96C43.6019 28.8333 43.6419 28.68 43.6419 28.5V26.52C43.6419 26.1267 43.7152 25.8033 43.8619 25.55C44.0085 25.29 44.2085 25.0967 44.4619 24.97C44.7152 24.8433 45.0019 24.78 45.3219 24.78C45.6419 24.78 45.9285 24.8433 46.1819 24.97C46.4352 25.0967 46.6352 25.29 46.7819 25.55C46.9285 25.8033 47.0019 26.1267 47.0019 26.52V28.5C47.0019 28.68 47.0385 28.8333 47.1119 28.96C47.1852 29.08 47.2819 29.1733 47.4019 29.24C47.5219 29.3 47.6519 29.33 47.7919 29.33C47.9319 29.33 48.0585 29.3 48.1719 29.24C48.2852 29.1733 48.3785 29.08 48.4519 28.96C48.5252 28.8333 48.5619 28.68 48.5619 28.5V24.9H49.4919V28.34C49.4919 28.7533 49.4152 29.0933 49.2619 29.36C49.1085 29.62 48.9019 29.8133 48.6419 29.94C48.3885 30.06 48.1052 30.12 47.7919 30.12C47.4852 30.12 47.2019 30.06 46.9419 29.94C46.6819 29.8133 46.4719 29.62 46.3119 29.36C46.1585 29.0933 46.0819 28.7533 46.0819 28.34V26.38C46.0819 26.1933 46.0452 26.04 45.9719 25.92C45.8985 25.8 45.8052 25.7133 45.6919 25.66C45.5785 25.6 45.4552 25.57 45.3219 25.57C45.1885 25.57 45.0619 25.6 44.9419 25.66C44.8285 25.7133 44.7352 25.8 44.6619 25.92C44.5952 26.04 44.5619 26.1933 44.5619 26.38V28.34C44.5619 28.7533 44.4819 29.0933 44.3219 29.36C44.1685 29.62 43.9619 29.8133 43.7019 29.94C43.4485 30.06 43.1685 30.12 42.8619 30.12ZM53.3566 30.12C52.8366 30.12 52.3766 30.0033 51.9766 29.77C51.5766 29.53 51.2599 29.21 51.0266 28.81C50.7932 28.4033 50.6766 27.95 50.6766 27.45C50.6766 26.95 50.7932 26.5 51.0266 26.1C51.2599 25.6933 51.5766 25.3733 51.9766 25.14C52.3766 24.9 52.8366 24.78 53.3566 24.78C53.8766 24.78 54.3366 24.9 54.7366 25.14C55.1432 25.3733 55.4599 25.69 55.6866 26.09C55.9199 26.49 56.0366 26.9433 56.0366 27.45C56.0366 27.95 55.9199 28.4033 55.6866 28.81C55.4599 29.21 55.1432 29.53 54.7366 29.77C54.3366 30.0033 53.8766 30.12 53.3566 30.12ZM53.3566 29.33C53.7099 29.33 54.0166 29.2467 54.2766 29.08C54.5366 28.9133 54.7399 28.69 54.8866 28.41C55.0332 28.1233 55.1066 27.8033 55.1066 27.45C55.1066 27.0967 55.0332 26.78 54.8866 26.5C54.7399 26.2133 54.5366 25.9867 54.2766 25.82C54.0166 25.6533 53.7099 25.57 53.3566 25.57C53.0099 25.57 52.7032 25.6533 52.4366 25.82C52.1766 25.9867 51.9732 26.2133 51.8266 26.5C51.6799 26.78 51.6066 27.0967 51.6066 27.45C51.6066 27.8033 51.6799 28.1233 51.8266 28.41C51.9732 28.69 52.1766 28.9133 52.4366 29.08C52.7032 29.2467 53.0099 29.33 53.3566 29.33ZM57.1863 30V26.35C57.1863 25.8967 57.313 25.5433 57.5663 25.29C57.8263 25.03 58.183 24.9 58.6363 24.9H59.6863V25.69H58.8063C58.5863 25.69 58.413 25.7533 58.2863 25.88C58.1663 26.0067 58.1063 26.1833 58.1063 26.41V30H57.1863ZM60.5366 30V22.7H61.4566V27.04H62.8566L64.1966 24.9H65.2166L63.7666 27.18C64.2466 27.32 64.62 27.5833 64.8866 27.97C65.16 28.35 65.2966 28.7933 65.2966 29.3V30H64.3666V29.3C64.3666 29.02 64.3033 28.77 64.1766 28.55C64.0566 28.33 63.8866 28.1567 63.6666 28.03C63.4466 27.8967 63.1933 27.83 62.9066 27.83H61.4566V30H60.5366Z" fill="#3B867B"/>
<path d="M0.730022 18V17.15H3.76002C3.99336 17.15 4.19336 17.0967 4.36002 16.99C4.52669 16.8767 4.65669 16.7333 4.75002 16.56C4.84336 16.3867 4.89002 16.2033 4.89002 16.01C4.89002 15.81 4.84336 15.6267 4.75002 15.46C4.66336 15.2867 4.53669 15.15 4.37002 15.05C4.21002 14.9433 4.01336 14.89 3.78002 14.89H2.46002C2.06669 14.89 1.72002 14.81 1.42002 14.65C1.12002 14.4833 0.883355 14.2567 0.710022 13.97C0.543355 13.6767 0.460022 13.3467 0.460022 12.98C0.460022 12.6067 0.540022 12.27 0.700022 11.97C0.866689 11.67 1.09669 11.4333 1.39002 11.26C1.69002 11.0867 2.03336 11 2.42002 11H5.39002V11.85H2.51002C2.29002 11.85 2.09669 11.9033 1.93002 12.01C1.76336 12.11 1.63669 12.2433 1.55002 12.41C1.46336 12.57 1.42002 12.7433 1.42002 12.93C1.42002 13.11 1.46002 13.2833 1.54002 13.45C1.62669 13.61 1.75002 13.74 1.91002 13.84C2.07669 13.94 2.26669 13.99 2.48002 13.99H3.83002C4.25002 13.99 4.61002 14.0733 4.91002 14.24C5.21002 14.4067 5.44002 14.6333 5.60002 14.92C5.76002 15.2067 5.84002 15.5333 5.84002 15.9C5.84002 16.3067 5.75669 16.67 5.59002 16.99C5.43002 17.3033 5.20002 17.55 4.90002 17.73C4.60002 17.91 4.25669 18 3.87002 18H0.730022Z" fill="#3B867B"/>
<path d="M9.39955 18.12C8.87955 18.12 8.41955 18.0033 8.01955 17.77C7.61955 17.53 7.30289 17.21 7.06955 16.81C6.83622 16.4033 6.71955 15.95 6.71955 15.45C6.71955 14.95 6.83622 14.5 7.06955 14.1C7.30289 13.6933 7.61955 13.3733 8.01955 13.14C8.41955 12.9 8.87955 12.78 9.39955 12.78C9.91955 12.78 10.3796 12.9 10.7796 13.14C11.1862 13.3733 11.5029 13.69 11.7296 14.09C11.9629 14.49 12.0796 14.9433 12.0796 15.45C12.0796 15.95 11.9629 16.4033 11.7296 16.81C11.5029 17.21 11.1862 17.53 10.7796 17.77C10.3796 18.0033 9.91955 18.12 9.39955 18.12ZM9.39955 17.33C9.75289 17.33 10.0596 17.2467 10.3196 17.08C10.5796 16.9133 10.7829 16.69 10.9296 16.41C11.0762 16.1233 11.1496 15.8033 11.1496 15.45C11.1496 15.0967 11.0762 14.78 10.9296 14.5C10.7829 14.2133 10.5796 13.9867 10.3196 13.82C10.0596 13.6533 9.75289 13.57 9.39955 13.57C9.05289 13.57 8.74622 13.6533 8.47955 13.82C8.21955 13.9867 8.01622 14.2133 7.86955 14.5C7.72289 14.78 7.64955 15.0967 7.64955 15.45C7.64955 15.8033 7.72289 16.1233 7.86955 16.41C8.01622 16.69 8.21955 16.9133 8.47955 17.08C8.74622 17.2467 9.05289 17.33 9.39955 17.33Z" fill="#3B867B"/>
<path d="M15.7293 18C15.2027 18 14.7327 17.8867 14.3193 17.66C13.906 17.4333 13.5793 17.13 13.3393 16.75C13.0993 16.3633 12.9793 15.93 12.9793 15.45C12.9793 14.97 13.0993 14.54 13.3393 14.16C13.5793 13.7733 13.906 13.4667 14.3193 13.24C14.7327 13.0133 15.2027 12.9 15.7293 12.9H16.3293V13.69H15.6993C15.3593 13.69 15.0527 13.77 14.7793 13.93C14.5127 14.0833 14.2993 14.2933 14.1393 14.56C13.986 14.8267 13.9093 15.1233 13.9093 15.45C13.9093 15.7767 13.986 16.0733 14.1393 16.34C14.2993 16.6067 14.5127 16.82 14.7793 16.98C15.0527 17.1333 15.3593 17.21 15.6993 17.21H16.3293V18H15.7293Z" fill="#3B867B"/>
<path d="M17.3804 18V12.9H18.3104V18H17.3804ZM17.8504 12.09C17.6837 12.09 17.5371 12.03 17.4104 11.91C17.2904 11.7833 17.2304 11.6367 17.2304 11.47C17.2304 11.3033 17.2904 11.16 17.4104 11.04C17.5371 10.9133 17.6837 10.85 17.8504 10.85C18.0171 10.85 18.1604 10.9133 18.2804 11.04C18.4071 11.16 18.4704 11.3033 18.4704 11.47C18.4704 11.6367 18.4071 11.7833 18.2804 11.91C18.1604 12.03 18.0171 12.09 17.8504 12.09Z" fill="#3B867B"/>
<path d="M21.8832 18.12C21.3899 18.12 20.9632 18.0033 20.6032 17.77C20.2432 17.53 19.9666 17.2067 19.7732 16.8C19.5799 16.3933 19.4832 15.9433 19.4832 15.45C19.4832 14.95 19.5899 14.5 19.8032 14.1C20.0166 13.6933 20.3232 13.3733 20.7232 13.14C21.1232 12.9 21.6032 12.78 22.1632 12.78C22.7032 12.78 23.1666 12.8967 23.5532 13.13C23.9399 13.3633 24.2366 13.68 24.4432 14.08C24.6566 14.48 24.7632 14.9267 24.7632 15.42V18H23.8332V16.96H23.8132C23.7132 17.1533 23.5766 17.34 23.4032 17.52C23.2366 17.6933 23.0266 17.8367 22.7732 17.95C22.5199 18.0633 22.2232 18.12 21.8832 18.12ZM22.1232 17.33C22.4566 17.33 22.7499 17.25 23.0032 17.09C23.2632 16.9233 23.4632 16.6967 23.6032 16.41C23.7499 16.1167 23.8232 15.79 23.8232 15.43C23.8232 15.0767 23.7532 14.76 23.6132 14.48C23.4799 14.2 23.2866 13.98 23.0332 13.82C22.7799 13.6533 22.4832 13.57 22.1432 13.57C21.7832 13.57 21.4732 13.6533 21.2132 13.82C20.9599 13.9867 20.7632 14.2133 20.6232 14.5C20.4899 14.78 20.4232 15.1 20.4232 15.46C20.4232 15.8067 20.4899 16.1233 20.6232 16.41C20.7566 16.69 20.9499 16.9133 21.2032 17.08C21.4566 17.2467 21.7632 17.33 22.1232 17.33Z" fill="#3B867B"/>
<path d="M26.2281 18V10.7H27.1481V18H26.2281Z" fill="#3B867B"/>
<path d="M18.1293 8.79002C17.7693 8.79002 17.4459 8.70668 17.1593 8.54002C16.8726 8.37335 16.6459 8.14668 16.4793 7.86002C16.3193 7.56668 16.2393 7.22669 16.2393 6.84002V3.36002C16.2393 3.18002 16.1959 3.01668 16.1093 2.87002C16.0226 2.72335 15.9059 2.60668 15.7593 2.52002C15.6126 2.43335 15.4526 2.39002 15.2793 2.39002C15.1059 2.39002 14.9459 2.43335 14.7993 2.52002C14.6593 2.60668 14.5459 2.72335 14.4593 2.87002C14.3793 3.01668 14.3393 3.18002 14.3393 3.36002V8.67002H13.3793V3.49002C13.3793 3.12335 13.4593 2.79335 13.6193 2.50002C13.7793 2.20668 14.0026 1.97668 14.2893 1.81002C14.5759 1.63668 14.9059 1.55002 15.2793 1.55002C15.6593 1.55002 15.9926 1.63668 16.2793 1.81002C16.5659 1.97668 16.7893 2.20668 16.9493 2.50002C17.1093 2.79335 17.1893 3.12335 17.1893 3.49002V6.97002C17.1893 7.15669 17.2326 7.32335 17.3193 7.47002C17.4059 7.61002 17.5193 7.72335 17.6593 7.81002C17.8059 7.89669 17.9626 7.94002 18.1293 7.94002C18.2959 7.94002 18.4493 7.89669 18.5893 7.81002C18.7293 7.72335 18.8393 7.61002 18.9193 7.47002C19.0059 7.32335 19.0493 7.15669 19.0493 6.97002V3.49002C19.0493 3.12335 19.1293 2.79335 19.2893 2.50002C19.4559 2.20668 19.6826 1.97668 19.9693 1.81002C20.2559 1.63668 20.5893 1.55002 20.9693 1.55002C21.3426 1.55002 21.6726 1.63668 21.9593 1.81002C22.2459 1.97668 22.4693 2.20668 22.6293 2.50002C22.7893 2.79335 22.8693 3.12335 22.8693 3.49002V8.67002H21.9093V3.36002C21.9093 3.18002 21.8659 3.01668 21.7793 2.87002C21.6993 2.72335 21.5859 2.60668 21.4393 2.52002C21.2993 2.43335 21.1426 2.39002 20.9693 2.39002C20.7893 2.39002 20.6259 2.43335 20.4793 2.52002C20.3393 2.60668 20.2259 2.72335 20.1393 2.87002C20.0526 3.01668 20.0093 3.18002 20.0093 3.36002V6.84002C20.0093 7.22669 19.9259 7.56668 19.7593 7.86002C19.5993 8.14668 19.3759 8.37335 19.0893 8.54002C18.8093 8.70668 18.4893 8.79002 18.1293 8.79002Z" fill="white"/>
<path d="M26.2279 10.7V8.75002C25.8546 8.69668 25.5213 8.57335 25.2279 8.38002C24.9413 8.18002 24.7146 7.92335 24.5479 7.61002C24.3813 7.29002 24.2979 6.92669 24.2979 6.52002V3.57002H25.2279V6.51002C25.2279 6.81669 25.2946 7.08335 25.4279 7.31002C25.5613 7.53002 25.7379 7.70002 25.9579 7.82002C26.1846 7.94002 26.4246 8.00002 26.6779 8.00002C26.9379 8.00002 27.1779 7.94002 27.3979 7.82002C27.6246 7.70002 27.8046 7.53002 27.9379 7.31002C28.0779 7.08335 28.1479 6.81669 28.1479 6.51002V3.57002H29.0679V6.52002C29.0679 6.92669 28.9846 7.28669 28.8179 7.60002C28.6579 7.91335 28.4313 8.17002 28.1379 8.37002C27.8513 8.56335 27.5213 8.69002 27.1479 8.75002V10.7H26.2279Z" fill="white"/>
<rect x="15" y="18" width="16" height="16" fill="#3B867B"/>
<path d="M24.7315 30C24.281 30 23.8829 29.9079 23.537 29.7238C23.1991 29.5322 22.9336 29.2744 22.7406 28.9503C22.5475 28.6262 22.451 28.2615 22.451 27.8564V24C22.451 23.8011 22.3987 23.6206 22.2941 23.4586C22.1895 23.2965 22.0488 23.1676 21.8718 23.0718C21.6948 22.9761 21.5018 22.9282 21.2926 22.9282C21.0835 22.9282 20.8904 22.9761 20.7134 23.0718C20.5445 23.1676 20.4077 23.2965 20.3032 23.4586C20.2066 23.6206 20.1584 23.8011 20.1584 24V29.8674H19V24.1436C19 23.7385 19.0965 23.3738 19.2896 23.0497C19.4827 22.7256 19.7521 22.4715 20.098 22.2873C20.4439 22.0958 20.8421 22 21.2926 22C21.7511 22 22.1533 22.0958 22.4992 22.2873C22.8451 22.4715 23.1146 22.7256 23.3077 23.0497C23.5008 23.3738 23.5973 23.7385 23.5973 24.1436V28C23.5973 28.1989 23.6496 28.3794 23.7541 28.5414C23.8587 28.7035 23.9955 28.8324 24.1644 28.9282C24.3414 29.0239 24.5304 29.0718 24.7315 29.0718C24.9326 29.0718 25.1176 29.0239 25.2866 28.9282C25.4555 28.8324 25.5882 28.7035 25.6848 28.5414C25.7893 28.3794 25.8416 28.1989 25.8416 28V22.1326H27V27.8564C27 28.2615 26.9035 28.6262 26.7104 28.9503C26.5173 29.2744 26.2519 29.5322 25.914 29.7238C25.5762 29.9079 25.182 30 24.7315 30Z" fill="white"/>
</svg>
